<?xml version="1.0" standalone="no"?>
<!DOCTYPE svg PUBLIC "-//W3C//DTD SVG 20010904//EN"
 "http://www.w3.org/TR/2001/REC-SVG-20010904/DTD/svg10.dtd">
<svg version="1.0" xmlns="http://www.w3.org/2000/svg"
 width="1094.000000pt" height="469.000000pt" viewBox="0 0 1094.000000 469.000000"
 preserveAspectRatio="xMidYMid meet">
<metadata>
Created by potrace 1.16, written by Peter Selinger 2001-2019
</metadata>
<g transform="translate(0.000000,469.000000) scale(0.100000,-0.100000)"
fill="#000000" stroke="none">
<path d="M6307 4453 c-11 -10 -8 -97 4 -132 9 -25 15 -30 30 -26 25 8 24 -11
-1 -25 -19 -10 -19 -13 -5 -40 19 -36 23 -37 21 -7 -2 21 10 37 27 37 4 0 7
-9 7 -20 0 -11 -4 -20 -10 -20 -5 0 -7 -7 -4 -15 4 -8 2 -21 -4 -28 -7 -8 -2
-40 14 -102 18 -65 26 -127 29 -220 3 -71 10 -164 15 -205 6 -41 14 -120 20
-175 5 -55 15 -138 21 -185 13 -94 9 -130 -21 -160 -43 -43 -64 -14 -100 130
-31 129 -91 324 -105 347 -8 12 -31 72 -51 135 -37 116 -113 290 -131 301 -6
4 -18 -2 -28 -13 -10 -11 -24 -20 -32 -20 -7 0 -13 -6 -13 -12 0 -7 -18 -20
-39 -29 -34 -14 -38 -20 -34 -43 3 -14 8 -26 12 -26 13 0 51 32 47 39 -6 9 44
64 52 57 3 -3 -2 -14 -11 -23 -11 -13 -13 -23 -6 -36 14 -25 -1 -41 -53 -57
-24 -8 -48 -17 -54 -22 -7 -5 -35 -10 -63 -11 -38 -1 -51 -6 -51 -17 0 -17 46
-179 84 -292 14 -43 28 -94 32 -115 12 -68 82 -358 99 -407 28 -82 -4 -127
-51 -73 -26 29 -56 77 -49 77 12 0 -98 195 -142 253 -24 33 -58 87 -75 120
-17 34 -53 96 -78 137 -26 42 -55 102 -65 135 -26 90 -42 116 -68 111 -66 -12
-145 -62 -128 -79 19 -19 12 -31 -29 -50 -37 -17 -53 -37 -30 -37 6 0 10 -7
10 -16 0 -14 8 -16 51 -10 l52 7 -26 -30 c-14 -17 -28 -40 -32 -51 -3 -11 -11
-20 -16 -20 -5 0 -9 -9 -9 -20 0 -20 34 -121 51 -152 5 -10 9 -26 9 -36 0 -29
55 -161 102 -247 24 -44 62 -115 84 -158 49 -99 85 -142 137 -168 23 -12 60
-34 82 -50 147 -108 147 -108 187 -75 18 15 54 43 81 62 26 20 47 42 47 49 0
7 13 15 29 18 16 4 62 35 101 69 130 116 179 154 297 233 65 43 120 83 121 87
2 4 12 8 22 8 10 0 22 5 25 10 3 6 14 10 24 10 22 0 52 33 77 85 16 34 19 62
19 195 -1 130 -5 176 -29 285 -35 169 -74 315 -86 330 -6 7 -21 62 -35 124
-14 61 -36 136 -50 167 -22 49 -26 54 -44 44 -11 -5 -23 -15 -26 -20 -8 -13
-85 -13 -85 -1 0 6 5 13 10 16 18 11 10 25 -14 25 -36 0 -55 10 -50 25 4 9 0
12 -14 8 -11 -2 -23 0 -26 6 -4 5 -13 8 -21 4 -18 -6 -20 8 -3 25 9 9 7 12 -8
12 -12 0 -24 -3 -27 -7z m-601 -1225 c54 -43 64 -52 64 -65 0 -7 5 -13 11 -13
7 0 9 -9 5 -22 -8 -25 -13 -52 -15 -81 0 -10 -6 -15 -11 -12 -6 3 -13 -1 -16
-9 -3 -9 -13 -16 -22 -16 -14 0 -14 -1 0 -12 19 -15 33 -68 18 -68 -5 0 -10 5
-10 11 0 7 -10 9 -25 7 -14 -3 -25 -2 -25 2 0 4 -7 10 -15 14 -22 8 -19 3 25
-44 22 -23 40 -46 40 -51 0 -10 77 -49 97 -49 7 0 13 -4 13 -8 0 -5 -20 -9
-44 -9 -30 0 -43 4 -40 12 7 17 -16 33 -56 38 -19 3 -37 6 -39 6 -2 1 3 8 10
17 12 15 10 16 -17 10 -34 -8 -50 5 -78 63 -17 36 -20 62 -10 98 4 16 15 22
45 25 25 2 39 -1 39 -8 0 -23 26 -21 37 2 6 13 7 24 3 24 -5 0 -10 -6 -13 -12
-5 -17 -37 8 -37 28 0 8 -14 26 -31 41 -27 24 -28 28 -12 34 14 6 11 8 -12 8
-19 1 -35 9 -43 21 -15 24 -7 26 15 5 17 -17 40 -14 35 4 -2 9 3 9 17 1 26
-13 52 -13 28 1 -9 6 -15 14 -12 20 11 16 51 10 81 -13z"/>
<path d="M7754 3478 c-2 -3 -38 -7 -80 -7 -81 0 -131 -20 -120 -47 4 -10 -2
-14 -18 -14 -19 0 -23 -4 -19 -20 3 -12 11 -19 17 -17 18 7 66 -22 66 -39 0
-11 6 -13 20 -9 11 4 20 2 20 -4 0 -6 11 -11 24 -11 19 0 24 -5 23 -20 -1 -22
-17 -26 -35 -8 -9 9 -15 9 -24 0 -9 -9 -7 -12 10 -12 27 0 30 -36 5 -56 -17
-13 -17 -15 0 -25 9 -5 17 -20 18 -32 0 -21 1 -21 9 -2 5 12 9 14 9 6 1 -8 4
-11 8 -8 11 11 41 -43 36 -64 -3 -10 -2 -31 1 -45 7 -25 8 -26 20 -8 6 10 17
42 24 69 6 28 19 81 28 118 9 38 14 70 12 72 -2 3 -13 6 -24 8 -22 5 -43 12
-99 37 -22 10 -48 20 -57 23 -21 7 -23 23 -6 33 6 4 16 0 22 -8 19 -25 45 -29
56 -7 9 15 7 23 -6 37 -16 16 -15 17 17 24 19 4 50 10 69 13 32 5 64 23 47 26
-25 5 -70 3 -73 -3z"/>
<path d="M6834 3064 c-6 -3 -60 -59 -120 -125 -65 -73 -146 -150 -202 -192
-51 -38 -107 -90 -123 -113 -16 -24 -60 -65 -97 -91 -37 -26 -73 -53 -80 -60
-7 -7 -16 -13 -20 -13 -4 0 -26 -17 -49 -38 -31 -29 -41 -44 -37 -60 5 -15 -1
-24 -23 -37 -22 -12 -23 -14 -5 -10 15 5 24 1 28 -10 4 -9 13 -14 20 -11 15 6
19 -6 7 -18 -12 -12 -9 -76 3 -76 5 0 15 5 21 11 16 16 29 4 36 -31 11 -52 44
-39 151 58 37 34 74 62 82 62 7 0 29 -10 49 -21 27 -16 46 -20 77 -16 29 4 48
1 67 -11 22 -15 53 -17 226 -15 276 2 255 0 255 21 0 36 -36 55 -118 62 -48 4
-85 3 -97 -4 -16 -8 -227 -18 -360 -16 -58 1 -50 50 9 50 41 0 122 25 109 33
-6 4 -53 8 -105 9 -73 2 -91 6 -80 14 14 10 13 12 -6 18 -13 5 -22 16 -22 28
0 19 4 20 70 14 41 -4 70 -3 70 2 0 5 -34 19 -75 31 -60 18 -75 27 -75 42 0
11 7 19 18 20 38 2 79 -3 126 -17 27 -8 51 -12 53 -10 6 6 -60 42 -101 56 -41
13 -57 37 -35 51 18 11 44 4 151 -37 48 -19 94 -34 103 -34 25 0 17 31 -20 71
-19 22 -35 48 -35 59 0 32 28 36 58 9 63 -57 76 -65 69 -46 -4 11 -1 17 7 17
7 0 16 14 20 31 5 24 14 34 46 46 40 16 57 40 21 30 -14 -3 -21 2 -26 20 -3
13 -3 28 0 34 4 5 -23 -11 -59 -37 -47 -32 -72 -44 -86 -39 -11 3 -20 11 -20
16 0 30 111 201 145 223 44 29 27 70 -21 50z"/>
<path d="M4749 3033 c-5 -16 -12 -34 -14 -41 -4 -11 11 -48 25 -62 3 -3 24
-30 46 -60 23 -30 55 -68 71 -85 16 -16 34 -37 39 -47 5 -9 40 -53 79 -98 56
-65 73 -80 91 -76 11 3 29 -1 40 -9 10 -8 14 -15 8 -15 -5 0 -9 -14 -8 -31 2
-24 19 -49 71 -103 39 -39 92 -98 119 -131 27 -33 59 -71 72 -85 23 -25 79
-117 179 -295 91 -161 116 -208 184 -343 50 -98 83 -150 124 -192 l55 -59 76
0 c42 0 78 -2 81 -5 3 -3 -11 -19 -31 -36 -20 -18 -36 -37 -36 -44 0 -11 42
-55 83 -85 9 -8 30 -15 45 -17 29 -3 92 15 92 28 0 4 7 5 15 2 8 -4 15 -1 15
5 0 14 62 15 76 1 5 -5 23 -11 39 -13 32 -4 71 -22 93 -44 7 -7 22 -13 32 -13
16 0 19 7 18 32 -1 53 1 58 28 68 14 6 22 15 19 21 -4 6 1 16 10 23 16 11 16
14 2 19 -23 9 -20 75 4 88 14 7 18 16 14 29 -9 27 11 94 41 137 13 20 23 40
22 44 -6 16 -103 88 -110 81 -14 -15 -87 -169 -97 -209 -15 -56 -50 -104 -88
-120 -29 -12 -34 -11 -61 12 -48 40 -49 78 -4 213 45 137 72 225 72 238 0 5
-14 18 -32 28 -30 19 -31 19 -45 0 -12 -16 -15 -17 -23 -5 -14 24 -35 -2 -70
-89 -39 -96 -93 -160 -137 -160 -41 0 -73 33 -73 75 0 37 33 135 59 175 19 28
33 58 56 114 14 36 14 41 -2 59 -10 10 -36 28 -58 39 -22 11 -47 27 -55 34 -8
8 -48 39 -88 71 -40 31 -70 58 -68 60 2 3 -16 23 -40 45 -37 34 -42 43 -32 56
13 15 7 22 -82 90 -19 15 -51 41 -70 59 -19 17 -66 55 -105 85 -38 29 -71 56
-73 61 -2 4 -8 7 -14 7 -5 0 -24 11 -42 25 -26 20 -39 23 -71 18 -27 -4 -36
-3 -31 5 7 12 -36 62 -53 62 -6 0 -14 12 -17 28 -6 22 -87 112 -102 112 -2 0
-22 14 -44 31 -26 21 -54 33 -84 37 -28 3 -44 10 -44 18 0 8 -9 14 -20 14 -11
0 -20 6 -20 13 0 18 -45 41 -64 34 -8 -3 -22 0 -30 8 -11 11 -16 12 -19 2 -3
-6 -6 -4 -6 7 -1 15 -4 16 -16 6 -17 -15 -19 -7 -5 21 6 10 20 19 30 19 25 0
26 16 1 30 -28 14 -30 13 -42 -17z"/>
<path d="M7379 3045 c-1 -11 -3 -27 -4 -35 -1 -8 -6 -23 -10 -33 -9 -22 -2
-69 20 -127 10 -28 19 -90 22 -168 l6 -123 33 3 c19 1 33 -2 31 -7 -1 -6 -16
-10 -34 -10 -17 0 -34 -2 -37 -5 -6 -7 -24 -70 -73 -255 -31 -120 -34 -144
-38 -315 -3 -102 -7 -208 -10 -237 -6 -53 6 -93 28 -93 15 0 98 -65 98 -77 0
-9 40 -5 51 5 13 13 98 284 98 313 0 16 4 29 9 29 28 0 108 418 113 593 l3 87
-32 0 c-42 0 -46 9 -17 45 24 29 25 29 39 11 14 -19 15 -18 16 15 1 19 1 42 0
52 -1 9 3 17 8 17 6 0 11 19 10 43 0 41 0 41 -16 20 -8 -13 -23 -23 -31 -23
-14 0 -14 -2 1 -12 18 -14 8 -46 -11 -34 -13 8 -22 56 -10 56 5 0 13 11 18 25
5 14 14 25 20 25 5 0 9 15 9 33 -1 24 -3 26 -6 9 -3 -13 -14 -27 -26 -32 -12
-4 -30 -18 -41 -30 l-18 -23 -23 29 c-21 25 -21 29 -7 33 19 4 32 19 32 39 0
17 -27 15 -34 -3 -8 -21 -18 -19 -51 9 -26 23 -27 25 -12 41 10 9 17 12 17 6
0 -6 8 -11 18 -11 15 1 14 2 -3 12 -11 7 -35 11 -52 9 -28 -2 -33 1 -33 19 0
12 -4 19 -9 16 -14 -9 -32 20 -28 46 2 12 2 17 0 11 -6 -19 -21 -16 -26 5 -4
15 -5 14 -8 -3z"/>
<path d="M7125 2814 c-44 -25 -91 -56 -105 -69 -16 -15 -42 -26 -71 -29 -67
-8 -77 -14 -72 -40 3 -13 0 -27 -6 -30 -16 -10 -13 -26 4 -26 14 0 60 20 205
88 120 57 170 95 170 129 0 35 -33 29 -125 -23z"/>
<path d="M1843 2211 c-94 -30 -151 -107 -208 -278 -14 -46 -30 -83 -34 -83 -4
0 -36 47 -70 105 -35 58 -70 110 -77 116 -10 8 -22 4 -47 -15 -19 -14 -40 -26
-46 -26 -21 0 -81 -32 -76 -40 3 -4 -2 -10 -9 -13 -9 -4 -20 -32 -27 -67 -12
-61 -32 -95 -50 -84 -16 9 -35 66 -48 139 -30 170 -48 208 -79 169 -10 -11
-39 -31 -65 -45 -51 -25 -99 -76 -117 -124 -15 -41 5 -135 47 -219 20 -39 49
-114 65 -166 16 -52 41 -120 55 -152 23 -51 28 -57 68 -67 24 -6 75 -11 113
-11 74 0 100 14 88 47 -4 10 -4 14 1 10 4 -4 15 16 24 45 13 44 20 54 42 56
20 3 29 -3 41 -26 8 -16 35 -54 61 -85 43 -54 46 -55 75 -45 24 8 46 6 95 -6
35 -9 66 -16 69 -16 2 0 10 24 16 53 7 28 26 77 41 107 35 67 103 260 125 355
9 39 23 123 32 187 12 95 13 126 3 158 -14 46 -24 48 -108 21z"/>
<path d="M3547 2192 c-15 -10 -24 -22 -20 -26 4 -4 1 -4 -8 -1 -9 3 -34 -12
-66 -42 -58 -55 -68 -81 -79 -216 -4 -61 -11 -90 -20 -94 -9 -3 -72 52 -161
140 -185 181 -215 207 -243 207 -23 0 -134 -80 -149 -108 -4 -9 -11 -39 -15
-67 -14 -115 -26 -248 -27 -310 -1 -36 -5 -64 -10 -63 -4 2 -39 66 -78 143
-39 77 -81 158 -93 180 -34 59 -138 217 -160 241 l-19 22 -50 -24 c-27 -13
-52 -24 -57 -24 -22 0 -76 -68 -146 -185 -43 -71 -93 -152 -111 -180 -43 -68
-79 -166 -116 -319 l-31 -129 23 -19 c31 -23 88 -41 119 -36 18 2 25 9 24 25
0 12 4 21 9 20 5 -1 17 21 27 48 9 28 27 69 38 92 19 37 27 42 72 52 28 6 57
11 65 11 8 0 51 12 97 26 l83 26 30 -35 c16 -19 50 -75 74 -124 67 -136 86
-142 158 -53 l48 60 25 -53 c14 -28 33 -53 42 -55 17 -3 149 88 177 122 11 13
12 40 7 131 -8 133 -1 142 57 73 19 -24 69 -79 112 -123 42 -44 94 -106 116
-138 22 -32 44 -55 50 -52 5 4 8 1 7 -6 -4 -17 48 -42 71 -34 11 3 38 24 60
45 23 22 45 40 50 40 5 0 24 -15 43 -34 38 -38 71 -50 213 -72 93 -15 105 -15
175 1 97 22 182 62 283 133 93 65 200 171 192 190 -3 7 -1 11 4 8 13 -8 34 21
25 35 -4 7 -3 9 3 6 12 -8 42 75 50 140 4 40 0 70 -18 125 -20 63 -32 81 -93
144 -93 93 -138 116 -241 122 -98 5 -200 -20 -320 -80 -101 -51 -151 -90 -175
-139 -25 -47 -25 -80 -2 -108 16 -21 19 -21 61 -6 28 10 48 12 54 6 5 -5 10
-65 11 -133 1 -137 9 -126 -74 -113 -30 5 -40 1 -68 -26 -18 -17 -35 -29 -38
-26 -3 2 -8 65 -11 140 -5 116 0 214 22 448 3 37 -12 69 -32 69 -10 0 -30 -8
-46 -18z m622 -316 c38 -20 59 -55 67 -113 13 -102 -65 -203 -157 -203 l-32 0
6 148 c3 81 9 155 12 165 9 21 64 23 104 3z"/>
<path d="M430 2185 c-122 -27 -265 -91 -270 -120 -1 -5 -4 -12 -7 -15 -4 -3
-3 1 1 8 4 6 3 12 -2 12 -17 0 -92 -89 -92 -109 0 -11 -7 -46 -15 -78 -14 -58
-37 -346 -36 -457 0 -33 5 -74 11 -91 10 -29 14 -32 47 -29 20 1 49 12 64 23
16 12 32 21 36 21 4 0 36 25 71 56 l62 56 0 66 c0 95 9 103 61 59 23 -20 46
-34 52 -30 6 3 7 1 4 -4 -4 -6 24 -38 61 -71 133 -118 128 -115 181 -110 53 5
146 45 233 101 45 29 55 41 51 57 -7 26 -114 112 -131 105 -7 -3 -10 0 -7 5 3
5 -26 30 -65 56 -38 26 -70 50 -70 54 0 3 15 13 33 22 56 28 116 86 127 126
19 69 13 125 -19 169 -36 49 -78 83 -103 83 -11 0 -17 4 -14 9 19 30 -167 48
-264 26z m173 -233 l21 -22 -20 -27 c-11 -15 -34 -31 -50 -35 -53 -15 -207
-39 -221 -34 -30 12 -2 95 40 118 59 33 197 33 230 0z"/>
<path d="M4891 2157 c-73 -36 -82 -47 -214 -265 -113 -187 -131 -227 -173
-395 -19 -78 -37 -148 -39 -155 -7 -21 109 -72 143 -63 15 4 28 15 30 24 3 12
-1 15 -15 11 -14 -5 -15 -4 -3 4 8 6 17 9 21 6 4 -2 10 7 13 21 3 13 20 55 37
94 l32 69 88 17 c49 9 114 25 145 35 62 22 73 19 107 -28 13 -17 26 -29 29
-26 4 3 9 0 14 -7 4 -8 3 -10 -4 -5 -18 11 -15 1 23 -75 40 -78 66 -109 93
-109 18 0 123 121 144 166 11 24 5 39 -97 244 -135 273 -258 470 -293 470 -10
0 -46 -15 -81 -33z"/>
<path d="M10650 2143 c-39 -14 -161 -105 -247 -187 -51 -48 -47 -55 42 -85 46
-15 63 -17 74 -8 12 10 13 5 8 -33 -28 -195 -30 -327 -12 -532 l7 -68 34 0
c40 0 89 22 97 44 3 8 23 24 44 35 21 10 49 29 62 42 l24 23 -6 181 c-4 127
-2 222 8 316 8 74 15 156 15 182 0 47 -1 48 -42 66 -53 23 -88 31 -108 24z"/>
<path d="M8275 2124 c-212 -50 -336 -120 -364 -205 -6 -19 -12 -52 -14 -73 -2
-32 3 -42 26 -60 23 -17 42 -21 100 -21 69 0 75 2 159 53 54 34 95 52 109 50
34 -5 41 -47 16 -99 -11 -24 -19 -48 -18 -54 2 -5 -1 -7 -4 -3 -4 4 -20 -9
-35 -30 -43 -59 -110 -108 -223 -162 -107 -51 -157 -93 -157 -131 0 -22 47
-96 76 -120 26 -22 115 -25 445 -17 211 5 239 7 263 24 14 10 28 27 31 37 9
24 20 21 41 -10 28 -45 54 -57 154 -75 109 -19 173 -22 198 -9 9 6 42 17 72
27 107 32 269 132 341 210 15 16 40 49 55 74 27 41 29 52 28 135 0 51 -6 100
-12 113 -14 25 -6 28 24 8 26 -18 105 -30 148 -22 18 4 70 29 115 56 85 52
108 59 129 38 20 -20 14 -55 -19 -113 -48 -85 -138 -162 -261 -222 -170 -84
-195 -134 -112 -223 46 -49 73 -60 104 -40 10 6 20 4 30 -5 13 -11 53 -12 240
-4 124 5 239 6 257 3 76 -14 143 37 143 111 0 82 -65 110 -233 101 l-112 -7
30 23 c16 13 59 41 95 64 54 33 65 44 62 65 -1 18 0 20 7 10 12 -19 66 64 86
133 35 116 11 213 -69 283 -130 115 -281 119 -500 14 -111 -53 -152 -103 -165
-201 l-7 -45 -24 50 c-14 28 -31 49 -37 48 -7 -2 -10 3 -7 11 8 20 -78 108
-137 141 -44 23 -65 28 -123 28 -61 1 -87 -6 -186 -45 -63 -25 -139 -53 -169
-63 -146 -48 -238 -238 -214 -442 6 -48 10 -89 9 -90 -1 -1 -22 5 -46 13 -35
12 -67 14 -152 8 -61 -4 -108 -3 -108 2 0 9 10 15 111 75 91 55 163 172 175
286 6 52 3 68 -19 117 -49 106 -152 177 -267 182 -36 2 -74 1 -85 -2z m839
-346 c89 -22 146 -85 146 -158 0 -60 -17 -90 -65 -117 -87 -49 -224 -12 -272
73 -39 67 -27 165 24 196 30 18 110 21 167 6z"/>
<path d="M7002 1987 c-17 -46 -32 -105 -35 -133 -3 -27 -3 -44 0 -37 3 7 19 1
48 -18 23 -16 49 -29 56 -29 7 0 21 -7 31 -17 17 -15 18 -14 18 33 0 65 -20
245 -29 264 -5 8 -19 16 -33 18 -24 3 -28 -3 -56 -81z"/>
<path d="M6817 1468 c-43 -121 -42 -120 -14 -107 37 17 86 -11 80 -46 -4 -21
-2 -24 12 -19 14 6 16 2 10 -32 -4 -22 -20 -61 -37 -89 -37 -61 -42 -101 -13
-97 58 8 64 12 71 50 9 53 54 122 80 122 11 0 36 14 54 30 18 17 37 30 41 30
19 0 19 -22 0 -38 -11 -9 -21 -30 -23 -47 -4 -44 28 -44 77 0 22 19 64 47 92
63 29 15 53 30 53 34 0 4 6 5 14 2 20 -8 93 83 105 130 8 34 8 38 -3 24 -17
-24 -33 -23 -46 2 -8 14 -17 19 -30 15 -25 -8 -60 11 -60 33 0 17 -23 -19 -41
-65 -6 -17 -5 -21 6 -16 8 3 15 1 15 -5 0 -17 -108 -7 -129 12 -12 11 -27 15
-38 12 -12 -4 -49 9 -97 34 -50 26 -90 40 -115 40 l-38 0 -26 -72z"/>
<path d="M10590 854 c-61 -22 -101 -72 -115 -144 -13 -68 -14 -70 -44 -64 -23
5 -29 2 -34 -18 -14 -51 -9 -63 25 -63 32 0 32 0 30 -45 -6 -91 -32 -287 -43
-321 -7 -19 -20 -45 -29 -59 -24 -35 -8 -84 23 -74 87 27 112 89 132 320 8 98
15 180 15 182 0 3 20 2 44 0 49 -6 56 1 56 54 l0 31 -46 -7 -47 -6 5 45 c8 65
31 95 72 95 30 0 35 4 41 31 4 17 5 33 2 35 -8 8 -71 14 -87 8z"/>
<path d="M5565 843 c-19 -4 -20 -9 -13 -136 4 -73 4 -205 1 -294 l-6 -163 56
0 57 0 0 154 0 154 31 11 c47 16 84 13 110 -8 23 -19 24 -23 22 -165 l-2 -146
55 0 54 0 0 155 c0 178 -9 213 -62 241 -46 25 -127 23 -171 -5 -19 -11 -37
-21 -40 -21 -4 0 -3 52 0 115 l6 115 -39 -1 c-21 -1 -48 -4 -59 -6z"/>
<path d="M9127 843 l-28 -4 3 -95 3 -95 -30 8 c-142 37 -255 -58 -255 -214 0
-155 128 -248 252 -184 30 15 38 16 42 5 3 -9 22 -14 51 -14 l45 0 0 300 0
300 -27 -1 c-16 -1 -41 -4 -56 -6z m-26 -274 c5 -8 9 -62 9 -120 0 -104 0
-106 -25 -117 -40 -19 -92 -15 -115 8 -58 58 -51 189 11 234 28 20 106 16 120
-5z"/>
<path d="M3780 783 c0 -9 33 -118 74 -242 41 -124 77 -241 81 -259 6 -31 8
-32 60 -32 l53 0 12 53 c7 28 25 97 41 152 16 55 35 123 42 150 l14 50 12 -45
c7 -25 32 -110 57 -190 24 -80 44 -151 44 -158 0 -8 18 -12 53 -12 l52 1 78
239 c43 131 81 255 84 274 l6 36 -54 0 -54 0 -39 -163 c-22 -89 -45 -186 -51
-216 l-11 -54 -52 200 c-29 110 -52 208 -52 217 0 13 -11 16 -59 16 l-58 0
-22 -87 c-11 -49 -36 -143 -54 -210 l-33 -123 -47 198 c-26 108 -47 203 -47
210 0 8 -20 12 -65 12 -54 0 -65 -3 -65 -17z"/>
<path d="M7405 525 l0 -275 58 0 57 0 0 120 0 120 107 0 106 0 -6 -120 -7
-120 58 0 59 0 -1 275 0 275 -58 0 -58 0 7 -110 6 -110 -106 0 -107 0 0 110 0
110 -57 0 -58 0 0 -275z"/>
<path d="M10778 759 c-11 -6 -18 -22 -18 -39 0 -50 -18 -83 -41 -77 -21 6 -23
3 -33 -45 -6 -25 -3 -28 19 -28 l25 0 -6 -127 c-6 -142 1 -168 50 -191 31 -16
103 -9 129 11 9 7 19 29 22 49 l7 38 -36 -15 c-66 -28 -93 6 -82 104 16 139
12 131 67 131 48 0 49 1 49 30 0 44 -1 45 -45 45 -44 0 -43 -3 -32 78 l7 47
-33 0 c-17 0 -40 -5 -49 -11z"/>
<path d="M4670 648 c-26 -14 -57 -41 -75 -66 -25 -36 -30 -55 -33 -116 -3 -59
0 -81 17 -113 43 -85 116 -119 236 -110 92 7 102 12 108 55 4 20 5 37 4 38 -2
2 -35 -2 -74 -8 -66 -9 -76 -8 -116 11 -41 20 -62 45 -69 81 -3 16 2 17 152
19 l110 1 0 55 c0 77 -29 131 -83 156 -57 25 -122 24 -177 -3z"/>
<path d="M5277 656 c-51 -19 -75 -42 -87 -85 -16 -59 10 -98 99 -146 87 -47
106 -69 77 -91 -22 -16 -95 -19 -143 -5 -27 8 -32 6 -37 -12 -14 -51 -8 -64
32 -71 177 -29 290 43 252 159 -14 41 -46 66 -123 95 -63 24 -83 53 -51 78 19
14 97 12 135 -3 13 -5 18 3 23 36 4 23 5 43 4 44 -2 2 -34 6 -73 9 -49 4 -82
2 -108 -8z"/>
<path d="M6091 659 c-30 -5 -55 -10 -56 -12 -1 -1 -5 -19 -8 -40 l-6 -38 32 7
c17 3 60 7 95 7 69 0 86 -10 97 -55 7 -25 5 -27 -42 -33 -89 -12 -127 -27
-160 -60 -28 -28 -33 -40 -33 -82 0 -42 5 -54 30 -78 26 -25 39 -29 88 -30 35
0 70 7 90 17 28 15 34 15 39 2 3 -9 20 -14 52 -14 l46 0 -3 157 c-4 174 -13
213 -59 237 -39 20 -135 27 -202 15z"/>
<path d="M6616 659 c-16 -4 -39 -17 -51 -29 l-23 -21 -6 26 c-7 26 -9 27 -54
20 -26 -4 -48 -8 -50 -9 -1 -2 2 -43 7 -92 5 -49 7 -137 4 -196 l-6 -108 57 0
56 0 0 138 c0 165 5 174 92 176 l52 1 9 43 c5 24 7 45 5 46 -11 9 -67 12 -92
5z"/>
<path d="M6891 663 c-13 -2 -45 -26 -71 -52 -108 -109 -86 -282 45 -347 51
-24 63 -26 138 -21 110 7 117 10 117 59 l0 39 -37 -7 c-63 -13 -140 -8 -167
10 -29 18 -60 72 -51 86 4 6 63 10 136 10 l129 0 0 48 c0 56 -32 127 -71 155
-26 19 -120 31 -168 20z"/>
<path d="M8055 664 c-94 -13 -94 -13 -101 -50 -3 -19 -4 -37 -2 -39 2 -3 29
-1 59 4 62 10 137 0 150 -20 5 -8 9 -24 9 -36 0 -17 -7 -22 -42 -27 -123 -19
-181 -55 -194 -121 -13 -73 30 -125 113 -132 35 -3 58 1 88 16 34 18 40 19 48
6 5 -10 23 -15 51 -15 l43 0 -3 168 c-4 180 -10 202 -65 229 -28 14 -111 23
-154 17z"/>
<path d="M8553 660 c-18 -4 -44 -15 -57 -24 -33 -21 -36 -20 -36 5 0 19 -4 20
-52 14 -29 -4 -54 -8 -55 -9 -1 -1 3 -33 9 -71 6 -39 8 -126 5 -197 l-5 -128
54 0 54 0 0 150 0 149 30 16 c40 20 83 19 111 -4 23 -19 24 -24 24 -165 l-1
-146 54 0 53 0 -3 174 c-3 167 -4 176 -26 199 -13 14 -43 30 -67 36 -48 12
-47 12 -92 1z"/>
<path d="M9845 656 c-17 -7 -36 -20 -44 -29 -20 -24 -31 -21 -31 9 0 25 -2 26
-37 20 -21 -3 -43 -6 -50 -6 -8 0 -12 -32 -12 -107 0 -60 -5 -142 -10 -183
-16 -116 -18 -110 38 -110 l49 0 7 67 c22 231 30 249 114 247 l49 -2 12 45 c6
25 10 47 8 48 -13 11 -69 12 -93 1z"/>
<path d="M10250 661 c-8 -5 -37 -12 -65 -16 -73 -10 -121 -33 -156 -73 -91
-104 -98 -282 -12 -321 52 -24 125 -3 161 45 l21 29 1 -38 0 -38 53 3 52 3 -3
70 c-2 39 4 124 12 190 21 162 22 155 -16 155 -18 0 -40 -4 -48 -9z m-27 -133
c-16 -146 -94 -246 -149 -191 -21 21 -15 122 10 171 21 40 70 72 113 72 l32 0
-6 -52z"/>
<path d="M9425 646 c-88 -38 -138 -117 -139 -216 0 -151 117 -231 250 -171 36
16 42 24 46 56 4 33 2 36 -16 30 -123 -38 -166 -19 -174 78 -3 41 1 63 17 95
27 54 51 65 122 60 57 -4 57 -4 63 25 11 57 11 57 -66 57 -40 -1 -86 -7 -103
-14z"/>
</g>
</svg>
